<svg width="628" height="200" viewBox="0 0 628 200" fill="none" xmlns="http://www.w3.org/2000/svg">
<rect width="628" height="200" fill="white"/>
<path d="M0 0H200V200H0V0Z" fill="#2D3441"/>
<path fill-rule="evenodd" clip-rule="evenodd" d="M127.658 108.154C125.492 108.862 123.291 110.103 121.28 108.513C117.895 105.838 121.819 100.497 118.432 97.821C115.046 95.1448 111.122 100.486 107.737 97.8112C104.352 95.1365 108.276 89.7952 104.889 87.119C101.503 84.4428 97.5792 89.7841 94.1945 87.1093C90.8097 84.4345 94.7333 79.0932 91.3467 76.417C87.9601 73.7408 84.0365 79.0821 80.6518 76.4073C79.588 75.5667 79.2461 74.4627 79.1723 73.2608C80.0667 67.15 82.5597 61.131 86.7148 55.873C98.8796 40.4791 120.684 37.4381 135.417 49.0805C150.15 60.7229 152.232 82.6401 140.067 98.0339C136.589 102.435 132.322 105.827 127.658 108.154Z" fill="#FB70A9"/>
<path fill-rule="evenodd" clip-rule="evenodd" d="M119.698 106.361C134.871 101.531 144.128 90.1882 147.469 72.3329C148.422 81.2284 146.018 90.5029 140.021 98.0926C136.555 102.478 132.266 105.825 127.549 108.089C125.352 108.762 123.128 109.974 121.044 108.327C120.33 107.763 119.923 107.093 119.698 106.361Z" fill="#E24CA6"/>
<path fill-rule="evenodd" clip-rule="evenodd" d="M106.466 82.7764C115.743 90.1071 123.883 87.8354 129.896 80.2258C135.91 72.6162 135.543 60.9475 128.263 55.1941C120.982 49.4407 109.545 51.7814 103.531 59.391C97.5178 67.0006 97.1894 75.4456 106.466 82.7764Z" fill="white"/>
<path d="M112.829 67.4381C115.559 69.5956 119.695 68.9122 122.066 65.9117C124.437 62.9112 124.146 58.7299 121.416 56.5723C118.685 54.4148 114.55 55.0982 112.179 58.0987C109.808 61.0992 110.099 65.2806 112.829 67.4381Z" fill="#030776"/>
<path d="M115.308 62.6079C116.673 63.6866 118.667 63.4385 119.761 62.0536C120.855 60.6688 120.636 58.6717 119.271 57.5929C117.906 56.5142 115.912 56.7623 114.818 58.1471C113.723 59.532 113.943 61.5291 115.308 62.6079Z" fill="white"/>
<path d="M86 138H114V166H86V138Z" fill="#D7DEEA"/>
<path d="M162 138H38L100 82L162 138ZM145 107H55L100 53L145 107ZM125 70H75L100 34L125 70Z" fill="#7BC1D1"/>
<mask id="mask0" mask-type="alpha" maskUnits="userSpaceOnUse" x="38" y="107" width="124" height="31">
<path d="M38 138L72.3214 107H55L38 138Z" fill="#7BC1D1"/>
<path d="M127.679 107L162 138L145 107H127.679Z" fill="#7BC1D1"/>
<path d="M38 138H162L127.679 107H72.3214L38 138Z" fill="#7BC1D1"/>
</mask>
<g mask="url(#mask0)">
<path d="M84.2526 92.06C86.2187 90.5398 86.5802 87.7136 85.06 85.7474C83.5398 83.7813 80.7136 83.4198 78.7475 84.94L84.2526 92.06ZM108 128L108.959 132.397L109.006 132.386L109.053 132.375L108 128ZM132.6 125.206C134.923 124.322 136.09 121.723 135.206 119.4C134.322 117.077 131.723 115.91 129.4 116.794L132.6 125.206ZM78.7475 84.94C66.4839 94.4222 59.4154 102.653 57.0351 109.938C55.7925 113.741 55.7875 117.423 57.1559 120.765C58.499 124.045 60.9687 126.52 63.8192 128.349C69.3939 131.928 77.2979 133.613 85.1452 134.123C93.1183 134.642 101.665 133.988 108.959 132.397L107.041 123.603C100.585 125.012 92.8817 125.608 85.7297 125.142C78.4521 124.669 72.3561 123.135 68.6808 120.776C66.9063 119.636 65.9385 118.463 65.4848 117.354C65.0562 116.308 64.895 114.86 65.59 112.734C67.0847 108.159 72.2661 101.328 84.2526 92.06L78.7475 84.94ZM109.053 132.375C119.046 129.971 124.258 128.38 132.6 125.206L129.4 116.794C121.46 119.815 116.619 121.298 106.947 123.625L109.053 132.375Z" fill="#4E56A6"/>
</g>
<mask id="mask1" mask-type="alpha" maskUnits="userSpaceOnUse" x="38" y="138" width="76" height="28">
<path d="M86 138H114V166H86V138Z" fill="#D7DEEA"/>
<path d="M86 166V138H38.5L86 166Z" fill="#D7DEEA"/>
</mask>
<g mask="url(#mask1)">
<path d="M97 98C66.5 124.72 71.5 173 109 150" stroke="#4E56A6" stroke-width="9" stroke-linecap="round"/>
</g>
<mask id="mask2" mask-type="alpha" maskUnits="userSpaceOnUse" x="72" y="53" width="90" height="113">
<path d="M127.679 107H125L135 113.613L127.679 107Z" fill="#7BC1D1"/>
<path d="M162 138L157.5 125.5L145 107H127.679L135 113.613L162 138Z" fill="#7BC1D1"/>
<path d="M145 107L100 53L72.5 86L125 107H127.679H145Z" fill="#7BC1D1"/>
<path d="M114 138V166L162 138H114Z" fill="#7BC1D1"/>
</mask>
<g mask="url(#mask2)">
<path d="M111.5 107.5C79.5 137.5 126 162 146 136C155.194 123.136 146 104 87 84.5" stroke="#4E56A6" stroke-width="9" stroke-linecap="round"/>
</g>
<path d="M251.746 126.879C264.543 126.879 272.207 120.691 272.207 110.953V110.918C272.207 102.938 267.426 98.6133 256.809 96.5039L251.43 95.4141C245.594 94.2539 242.992 92.3906 242.992 89.1914V89.1562C242.992 85.5352 246.262 83.0391 251.711 83.0039C256.949 83.0039 260.605 85.4297 261.133 89.4023L261.168 89.8242H271.188L271.152 89.1562C270.66 80.2617 263.453 74.3906 251.711 74.3906C240.461 74.3906 232.375 80.5078 232.375 89.7891V89.8242C232.375 97.4531 237.438 102.234 247.457 104.238L252.801 105.293C259.094 106.594 261.59 108.316 261.59 111.762V111.797C261.59 115.664 257.898 118.23 252.027 118.23C246.227 118.23 242.043 115.77 241.375 111.832L241.305 111.445H231.285L231.32 112.008C231.918 121.359 239.688 126.879 251.746 126.879ZM277.832 138.305H288.098V119.566H288.309C290.348 124.031 294.602 126.773 299.98 126.773C309.402 126.773 315.238 119.391 315.238 107.156V107.121C315.238 94.8516 309.402 87.5391 299.84 87.5391C294.496 87.5391 290.383 90.3164 288.344 94.8867H288.098V88.3125H277.832V138.305ZM296.465 118.266C291.473 118.266 288.062 113.977 288.062 107.191V107.156C288.062 100.336 291.473 96.0469 296.465 96.0469C301.562 96.0469 304.797 100.23 304.797 107.121V107.156C304.797 114.012 301.562 118.266 296.465 118.266ZM320.582 126H330.848V104.906C330.848 99.4219 333.801 96.3984 338.863 96.3984C340.34 96.3984 341.746 96.6094 342.59 96.9609V87.9258C341.816 87.7148 340.762 87.5391 339.637 87.5391C335.242 87.5391 332.184 90.2461 331.059 94.8867H330.848V88.3125H320.582V126ZM359.641 126.773C365.336 126.773 369.203 124.102 371.137 119.777H371.348V126H381.613V88.3125H371.348V109.969C371.348 114.891 368.43 118.266 363.824 118.266C359.219 118.266 356.898 115.418 356.898 110.496V88.3125H346.633V112.641C346.633 121.465 351.344 126.773 359.641 126.773ZM405.52 126.773C415.574 126.773 422.078 120.516 422.57 112.289V112.078H413.008L412.973 112.395C412.27 116.191 409.703 118.723 405.59 118.723C400.527 118.723 397.363 114.539 397.363 107.156V107.121C397.363 99.9141 400.527 95.5898 405.555 95.5898C409.809 95.5898 412.305 98.332 412.938 101.918L413.008 102.234H422.535V101.988C422.148 93.832 415.645 87.5391 405.414 87.5391C394.129 87.5391 386.922 95.0273 386.922 107.086V107.121C386.922 119.285 394.023 126.773 405.52 126.773ZM444.684 126.773C455.441 126.773 460.645 120.41 461.805 114.855L461.91 114.469H452.488L452.418 114.68C451.68 116.789 449.113 119.109 444.895 119.109C439.656 119.109 436.387 115.594 436.281 109.582H462.227V106.418C462.227 95.0273 455.301 87.5391 444.262 87.5391C433.223 87.5391 426.156 95.2031 426.156 107.191V107.227C426.156 119.285 433.152 126.773 444.684 126.773ZM444.438 95.2031C448.691 95.2031 451.75 97.9102 452.383 103.113H436.387C437.055 98.0156 440.219 95.2031 444.438 95.2031Z" fill="#7BC1D1"/>
<path d="M474.883 126H485.676L492.461 99.3516H492.672L499.492 126H510.426L520.41 88.3125H510.285L504.555 116.262H504.344L497.629 88.3125H487.785L481.105 116.262H480.895L475.199 88.3125H464.863L474.883 126ZM529.762 83.4609C532.855 83.4609 535.246 81.0352 535.246 78.1172C535.246 75.1992 532.855 72.7734 529.762 72.7734C526.668 72.7734 524.277 75.1992 524.277 78.1172C524.277 81.0352 526.668 83.4609 529.762 83.4609ZM524.629 126H534.895V88.3125H524.629V126ZM541.785 126H552.051V104.906C552.051 99.4219 555.004 96.3984 560.066 96.3984C561.543 96.3984 562.949 96.6094 563.793 96.9609V87.9258C563.02 87.7148 561.965 87.5391 560.84 87.5391C556.445 87.5391 553.387 90.2461 552.262 94.8867H552.051V88.3125H541.785V126ZM583.902 126.773C594.66 126.773 599.863 120.41 601.023 114.855L601.129 114.469H591.707L591.637 114.68C590.898 116.789 588.332 119.109 584.113 119.109C578.875 119.109 575.605 115.594 575.5 109.582H601.445V106.418C601.445 95.0273 594.52 87.5391 583.48 87.5391C572.441 87.5391 565.375 95.2031 565.375 107.191V107.227C565.375 119.285 572.371 126.773 583.902 126.773ZM583.656 95.2031C587.91 95.2031 590.969 97.9102 591.602 103.113H575.605C576.273 98.0156 579.438 95.2031 583.656 95.2031Z" fill="#4E56A6"/>
</svg>
