<svg width="200" height="200" viewBox="0 0 200 200" fill="none" xmlns="http://www.w3.org/2000/svg">
<path d="M0 0H200V200H0V0Z" fill="#2D3441"/>
<path fill-rule="evenodd" clip-rule="evenodd" d="M127.658 108.154C125.492 108.862 123.291 110.103 121.28 108.513C117.895 105.838 121.819 100.497 118.432 97.821C115.046 95.1447 111.122 100.486 107.737 97.8112C104.352 95.1365 108.276 89.7952 104.889 87.119C101.503 84.4428 97.5793 89.7841 94.1945 87.1093C90.8097 84.4345 94.7333 79.0932 91.3467 76.417C87.9601 73.7408 84.0365 79.0821 80.6518 76.4073C79.588 75.5667 79.2461 74.4627 79.1723 73.2608C80.0667 67.15 82.5597 61.131 86.7148 55.873C98.8796 40.4791 120.684 37.4381 135.417 49.0805C150.15 60.7229 152.232 82.6401 140.067 98.0339C136.589 102.435 132.322 105.827 127.658 108.154Z" fill="#FB70A9"/>
<path fill-rule="evenodd" clip-rule="evenodd" d="M119.698 106.361C134.871 101.531 144.128 90.1882 147.469 72.3329C148.422 81.2284 146.018 90.5029 140.021 98.0926C136.555 102.478 132.266 105.825 127.549 108.089C125.352 108.762 123.128 109.974 121.044 108.327C120.33 107.763 119.923 107.093 119.698 106.361Z" fill="#E24CA6"/>
<path fill-rule="evenodd" clip-rule="evenodd" d="M106.466 82.7764C115.743 90.1071 123.883 87.8354 129.896 80.2258C135.91 72.6162 135.543 60.9475 128.263 55.1941C120.982 49.4408 109.545 51.7814 103.531 59.391C97.5178 67.0006 97.1894 75.4456 106.466 82.7764Z" fill="white"/>
<path d="M112.829 67.4381C115.559 69.5956 119.695 68.9122 122.066 65.9117C124.437 62.9113 124.146 58.7299 121.416 56.5724C118.685 54.4148 114.55 55.0982 112.179 58.0987C109.808 61.0992 110.099 65.2806 112.829 67.4381Z" fill="#030776"/>
<path d="M115.308 62.6079C116.673 63.6866 118.667 63.4385 119.761 62.0536C120.855 60.6688 120.636 58.6717 119.271 57.5929C117.906 56.5142 115.912 56.7623 114.818 58.1471C113.723 59.532 113.943 61.5291 115.308 62.6079Z" fill="white"/>
<path d="M86 138H114V166H86V138Z" fill="#D7DEEA"/>
<path d="M162 138H38L100 82L162 138ZM145 107H55L100 53L145 107ZM125 70H75L100 34L125 70Z" fill="#7BC1D1"/>
<mask id="mask0" mask-type="alpha" maskUnits="userSpaceOnUse" x="38" y="107" width="124" height="31">
<path d="M38 138L72.3214 107H55L38 138Z" fill="#7BC1D1"/>
<path d="M127.679 107L162 138L145 107H127.679Z" fill="#7BC1D1"/>
<path d="M38 138H162L127.679 107H72.3214L38 138Z" fill="#7BC1D1"/>
</mask>
<g mask="url(#mask0)">
<path d="M84.2526 92.06C86.2187 90.5398 86.5802 87.7136 85.06 85.7474C83.5398 83.7813 80.7136 83.4198 78.7475 84.94L84.2526 92.06ZM108 128L108.959 132.397L109.006 132.386L109.053 132.375L108 128ZM132.6 125.206C134.923 124.322 136.09 121.723 135.206 119.4C134.322 117.077 131.723 115.91 129.4 116.794L132.6 125.206ZM78.7475 84.94C66.4839 94.4222 59.4154 102.653 57.0351 109.938C55.7925 113.741 55.7875 117.423 57.1559 120.765C58.499 124.045 60.9687 126.52 63.8192 128.349C69.3939 131.928 77.2979 133.613 85.1452 134.123C93.1183 134.642 101.665 133.988 108.959 132.397L107.041 123.603C100.585 125.012 92.8817 125.608 85.7297 125.142C78.4521 124.669 72.3561 123.135 68.6808 120.776C66.9063 119.636 65.9385 118.463 65.4848 117.354C65.0562 116.308 64.895 114.86 65.59 112.734C67.0847 108.159 72.2661 101.328 84.2526 92.06L78.7475 84.94ZM109.053 132.375C119.046 129.971 124.258 128.38 132.6 125.206L129.4 116.794C121.46 119.815 116.619 121.298 106.947 123.625L109.053 132.375Z" fill="#4E56A6"/>
</g>
<mask id="mask1" mask-type="alpha" maskUnits="userSpaceOnUse" x="38" y="138" width="76" height="28">
<path d="M86 138H114V166H86V138Z" fill="#D7DEEA"/>
<path d="M86 166V138H38.5L86 166Z" fill="#D7DEEA"/>
</mask>
<g mask="url(#mask1)">
<path d="M97 98C66.5 124.72 71.5 173 109 150" stroke="#4E56A6" stroke-width="9" stroke-linecap="round"/>
</g>
<mask id="mask2" mask-type="alpha" maskUnits="userSpaceOnUse" x="72" y="53" width="90" height="113">
<path d="M127.679 107H125L135 113.613L127.679 107Z" fill="#7BC1D1"/>
<path d="M162 138L157.5 125.5L145 107H127.679L135 113.613L162 138Z" fill="#7BC1D1"/>
<path d="M145 107L100 53L72.5 86L125 107H127.679H145Z" fill="#7BC1D1"/>
<path d="M114 138V166L162 138H114Z" fill="#7BC1D1"/>
</mask>
<g mask="url(#mask2)">
<path d="M111.5 107.5C79.5 137.5 126 162 146 136C155.194 123.136 146 104 87 84.5" stroke="#4E56A6" stroke-width="9" stroke-linecap="round"/>
</g>
</svg>
