<svg width="640" height="320" viewBox="0 0 640 320" fill="none" xmlns="http://www.w3.org/2000/svg">
<rect width="640" height="320" fill="white"/>
<g clip-path="url(#clip0)">
<path d="M0 58H203.822V261.822H0V58Z" fill="#2D3441"/>
<path fill-rule="evenodd" clip-rule="evenodd" d="M130.098 168.221C127.891 168.942 125.647 170.206 123.597 168.587C120.148 165.861 124.147 160.418 120.695 157.69C117.244 154.963 113.245 160.406 109.796 157.68C106.347 154.954 110.345 149.511 106.894 146.784C103.443 144.056 99.444 149.5 95.9945 146.774C92.5451 144.048 96.5436 138.605 93.0923 135.877C89.6411 133.15 85.6425 138.593 82.193 135.867C81.109 135.011 80.7605 133.886 80.6853 132.661C81.5968 126.433 84.1374 120.299 88.3719 114.941C100.769 99.2526 122.991 96.1534 138.005 108.018C153.019 119.883 155.141 142.219 142.744 157.907C139.199 162.393 134.851 165.849 130.098 168.221Z" fill="#FB70A9"/>
<path fill-rule="evenodd" clip-rule="evenodd" d="M121.985 166.394C137.449 161.471 146.882 149.912 150.287 131.715C151.258 140.781 148.808 150.232 142.696 157.967C139.165 162.436 134.793 165.848 129.987 168.154C127.747 168.84 125.481 170.075 123.357 168.397C122.63 167.822 122.215 167.14 121.985 166.394Z" fill="#E24CA6"/>
<path fill-rule="evenodd" clip-rule="evenodd" d="M108.5 142.358C117.954 149.829 126.25 147.514 132.379 139.759C138.507 132.004 138.133 120.112 130.714 114.249C123.294 108.385 111.638 110.771 105.51 118.526C99.3813 126.281 99.0466 134.887 108.5 142.358Z" fill="white"/>
<path d="M114.985 126.727C117.768 128.925 121.982 128.229 124.399 125.171C126.815 122.113 126.518 117.852 123.736 115.653C120.954 113.455 116.739 114.151 114.323 117.209C111.906 120.267 112.203 124.528 114.985 126.727Z" fill="#030776"/>
<path d="M117.511 121.804C118.903 122.904 120.935 122.651 122.05 121.239C123.165 119.828 122.941 117.793 121.55 116.693C120.159 115.594 118.127 115.847 117.012 117.258C115.897 118.67 116.12 120.705 117.511 121.804Z" fill="white"/>
<path d="M87.6433 198.637H116.178V227.172H87.6433V198.637Z" fill="#D7DEEA"/>
<path d="M165.096 198.637H38.7261L101.911 141.567L165.096 198.637ZM147.771 167.045H56.0509L101.911 112.013L147.771 167.045ZM127.388 129.338H76.4331L101.911 92.6497L127.388 129.338Z" fill="#7BC1D1"/>
<mask id="mask0" mask-type="alpha" maskUnits="userSpaceOnUse" x="38" y="167" width="128" height="32">
<path d="M38.7261 198.637L73.7033 167.045H56.0509L38.7261 198.637Z" fill="#7BC1D1"/>
<path d="M130.118 167.045L165.096 198.637L147.771 167.045H130.118Z" fill="#7BC1D1"/>
<path d="M38.7261 198.637H165.096L130.118 167.045H73.7033L38.7261 198.637Z" fill="#7BC1D1"/>
</mask>
<g mask="url(#mask0)">
<path d="M85.8623 151.819C87.866 150.27 88.2344 147.39 86.6852 145.386C85.1359 143.382 82.2557 143.014 80.252 144.563L85.8623 151.819ZM110.063 188.446L111.041 192.926L111.089 192.916L111.136 192.905L110.063 188.446ZM135.134 185.598C137.501 184.698 138.69 182.048 137.789 179.681C136.889 177.314 134.239 176.125 131.872 177.026L135.134 185.598ZM80.252 144.563C67.7541 154.226 60.5505 162.615 58.1247 170.039C56.8584 173.915 56.8533 177.666 58.2478 181.072C59.6167 184.416 62.1336 186.937 65.0385 188.802C70.7197 192.449 78.7747 194.166 86.772 194.686C94.8974 195.215 103.607 194.548 111.041 192.926L109.086 183.965C102.507 185.401 94.6563 186.008 87.3677 185.534C79.951 185.051 73.7385 183.488 69.993 181.083C68.1845 179.923 67.1982 178.726 66.7359 177.597C66.2992 176.53 66.1349 175.055 66.8431 172.888C68.3664 168.226 73.6468 161.264 85.8623 151.819L80.252 144.563ZM111.136 192.905C121.321 190.454 126.632 188.833 135.134 185.598L131.872 177.026C123.781 180.104 118.848 181.616 108.991 183.987L111.136 192.905Z" fill="#4E56A6"/>
</g>
<mask id="mask1" mask-type="alpha" maskUnits="userSpaceOnUse" x="39" y="198" width="78" height="30">
<path d="M87.6432 198.637H116.178V227.172H87.6432V198.637Z" fill="#D7DEEA"/>
<path d="M87.6432 227.172V198.637H39.2356L87.6432 227.172Z" fill="#D7DEEA"/>
</mask>
<g mask="url(#mask1)">
<path d="M97.7356 158.637C67.2356 185.357 72.2356 233.637 109.736 210.637" stroke="#4E56A6" stroke-width="9" stroke-linecap="round"/>
</g>
<mask id="mask2" mask-type="alpha" maskUnits="userSpaceOnUse" x="73" y="112" width="93" height="116">
<path d="M130.118 167.045H127.388L137.58 173.784L130.118 167.045Z" fill="#7BC1D1"/>
<path d="M165.095 198.637L160.509 185.898L147.771 167.045H130.118L137.58 173.784L165.095 198.637Z" fill="#7BC1D1"/>
<path d="M147.771 167.045L101.911 112.013L73.8853 145.643L127.388 167.045H130.118H147.771Z" fill="#7BC1D1"/>
<path d="M116.178 198.637V227.172L165.095 198.637H116.178Z" fill="#7BC1D1"/>
</mask>
<g mask="url(#mask2)">
<path d="M113.631 167.554C81.019 198.127 128.408 223.096 148.79 196.599C158.159 183.489 148.79 163.987 88.6624 144.115" stroke="#4E56A6" stroke-width="9.17197" stroke-linecap="round"/>
</g>
</g>
<path d="M256.556 186.985C269.598 186.985 277.408 180.679 277.408 170.755V170.719C277.408 162.586 272.536 158.179 261.716 156.029L256.234 154.919C250.287 153.736 247.635 151.838 247.635 148.577V148.541C247.635 144.851 250.967 142.307 256.521 142.271C261.859 142.271 265.585 144.744 266.123 148.792L266.158 149.222H276.369L276.334 148.541C275.832 139.477 268.487 133.494 256.521 133.494C245.056 133.494 236.815 139.728 236.815 149.186V149.222C236.815 156.997 241.974 161.869 252.185 163.912L257.631 164.986C264.045 166.312 266.588 168.068 266.588 171.579V171.615C266.588 175.556 262.826 178.171 256.843 178.171C250.931 178.171 246.668 175.663 245.987 171.65L245.916 171.256H235.705L235.74 171.83C236.349 181.36 244.267 186.985 256.556 186.985ZM283.141 198.629H293.603V179.533H293.818C295.896 184.083 300.231 186.877 305.713 186.877C315.314 186.877 321.262 179.354 321.262 166.885V166.85C321.262 154.346 315.314 146.893 305.569 146.893C300.123 146.893 295.931 149.724 293.853 154.381H293.603V147.682H283.141V198.629ZM302.13 178.207C297.042 178.207 293.567 173.836 293.567 166.921V166.885C293.567 159.935 297.042 155.564 302.13 155.564C307.325 155.564 310.621 159.827 310.621 166.85V166.885C310.621 173.872 307.325 178.207 302.13 178.207ZM326.708 186.089H337.17V164.592C337.17 159.003 340.179 155.922 345.338 155.922C346.843 155.922 348.276 156.137 349.136 156.495V147.287C348.348 147.072 347.273 146.893 346.127 146.893C341.648 146.893 338.531 149.652 337.384 154.381H337.17V147.682H326.708V186.089ZM366.513 186.877C372.317 186.877 376.258 184.154 378.228 179.748H378.443V186.089H388.905V147.682H378.443V169.752C378.443 174.768 375.47 178.207 370.776 178.207C366.083 178.207 363.718 175.305 363.718 170.289V147.682H353.256V172.475C353.256 181.467 358.057 186.877 366.513 186.877ZM413.268 186.877C423.515 186.877 430.143 180.5 430.645 172.116V171.901H420.9L420.864 172.224C420.147 176.093 417.532 178.673 413.34 178.673C408.181 178.673 404.956 174.409 404.956 166.885V166.85C404.956 159.505 408.181 155.098 413.304 155.098C417.639 155.098 420.183 157.893 420.828 161.547L420.9 161.869H430.609V161.619C430.215 153.307 423.587 146.893 413.161 146.893C401.66 146.893 394.315 154.525 394.315 166.814V166.85C394.315 179.246 401.552 186.877 413.268 186.877ZM453.181 186.877C464.144 186.877 469.447 180.393 470.629 174.732L470.736 174.338H461.134L461.063 174.553C460.31 176.702 457.695 179.067 453.396 179.067C448.057 179.067 444.725 175.484 444.618 169.357H471.059V166.133C471.059 154.525 464.001 146.893 452.751 146.893C441.501 146.893 434.299 154.704 434.299 166.921V166.957C434.299 179.246 441.429 186.877 453.181 186.877ZM452.93 154.704C457.265 154.704 460.382 157.463 461.027 162.765H444.725C445.406 157.57 448.631 154.704 452.93 154.704Z" fill="#7BC1D1"/>
<path d="M483.957 186.089H494.956L501.871 158.932H502.086L509.037 186.089H520.179L530.354 147.682H520.036L514.196 176.165H513.981L507.138 147.682H497.106L490.298 176.165H490.084L484.279 147.682H473.746L483.957 186.089ZM539.884 142.737C543.037 142.737 545.474 140.265 545.474 137.291C545.474 134.318 543.037 131.846 539.884 131.846C536.732 131.846 534.295 134.318 534.295 137.291C534.295 140.265 536.732 142.737 539.884 142.737ZM534.654 186.089H545.115V147.682H534.654V186.089ZM552.138 186.089H562.599V164.592C562.599 159.003 565.609 155.922 570.768 155.922C572.273 155.922 573.706 156.137 574.566 156.495V147.287C573.778 147.072 572.703 146.893 571.556 146.893C567.078 146.893 563.961 149.652 562.814 154.381H562.599V147.682H552.138V186.089ZM595.06 186.877C606.023 186.877 611.326 180.393 612.508 174.732L612.615 174.338H603.013L602.942 174.553C602.189 176.702 599.574 179.067 595.275 179.067C589.936 179.067 586.604 175.484 586.497 169.357H612.938V166.133C612.938 154.525 605.88 146.893 594.63 146.893C583.38 146.893 576.178 154.704 576.178 166.921V166.957C576.178 179.246 583.308 186.877 595.06 186.877ZM594.809 154.704C599.144 154.704 602.261 157.463 602.906 162.765H586.604C587.285 157.57 590.509 154.704 594.809 154.704Z" fill="#4E56A6"/>
<defs>
<clipPath id="clip0">
<rect width="203.822" height="203.822" fill="white" transform="translate(0 58)"/>
</clipPath>
</defs>
</svg>
